<svg id="ewxp702aV6B1" xmlns="http://www.w3.org/2000/svg" xmlns:xlink="http://www.w3.org/1999/xlink" viewBox="0 0 300 300" shape-rendering="geometricPrecision" text-rendering="geometricPrecision" project-id="13afb402e7504df6bba4e14d4706f0df" export-id="acd7f8dd2cd0460bbd1727e471459f99" cached="false"><ellipse rx="127.56526" ry="127.56526" transform="matrix(1.175869 0 0 1.175869 150.000035 150.000035)" fill="#57c4dc" stroke-width="0"/><path d="M60.69907,114.16916l-7.42397,90.3764h-.29366l-7.00364-90.3764h14.72127Z" transform="matrix(1.025452 1.028467-.533333 0.53177 129.260724 65.586922)" fill="#555" stroke-width="0"/><path d="M150,86.09424c35.29418,0,63.90576,28.61158,63.90576,63.90576h-127.81152c0-35.29418,28.61158-63.90576,63.90576-63.90576Z" transform="matrix(.707107 0.707107-.707107 0.707107 125.053544-28.189485)" fill="#fff" stroke-width="0"/><rect width="57.262103" height="63.781508" rx="0" ry="0" transform="matrix(.566055 0.546651-.69467 0.719328 190.472565 85.20372)" fill="#fff" stroke-width="0"/><rect width="57.262103" height="63.781508" rx="0" ry="0" transform="matrix(.982941 0.949246-.220718 0.228553 185.575571 66.388285)" fill="#fff" stroke-width="0"/></svg>
